<?xml version="1.0" standalone="no"?>
<!DOCTYPE svg PUBLIC "-//W3C//DTD SVG 20010904//EN"
 "http://www.w3.org/TR/2001/REC-SVG-20010904/DTD/svg10.dtd">
<svg version="1.0" xmlns="http://www.w3.org/2000/svg"
 width="472.000000pt" height="294.000000pt" viewBox="0 0 472.000000 294.000000"
 preserveAspectRatio="xMidYMid meet">

<g transform="translate(0.000000,294.000000) scale(0.100000,-0.100000)"
fill="#000000" stroke="none">
<path d="M940 1818 c-316 -617 -655 -1279 -753 -1470 l-178 -348 739 0 738 0
264 515 c237 463 292 563 261 482 -6 -15 -26 -93 -45 -175 -52 -225 -73 -379
-101 -744 l-6 -78 604 0 604 0 7 115 c11 206 54 440 112 620 30 91 126 299
143 309 8 5 11 -127 11 -513 l0 -521 685 0 685 0 0 630 0 630 -602 0 -602 0
39 41 c52 53 196 149 298 199 204 98 486 166 777 188 l95 7 3 603 c2 575 1
602 -16 602 -10 0 -79 -5 -153 -10 -682 -52 -1214 -236 -1664 -574 -90 -67
-282 -251 -356 -339 -27 -32 -49 -56 -49 -53 0 3 115 230 255 503 140 274 255
499 255 500 0 2 -332 3 -737 3 l-738 0 -575 -1122z"/>
</g>
</svg>
